HIERARCHY
ROOT Hips
{
    OFFSET 0.000000 0.000000 0.000000
    CHANNELS 6 Xposition Yposition Zposition Zrotation Xrotation Yrotation
        JOINT Chest
        {
            OFFSET -0.000000 26.747992 -0.000000
            CHANNELS 3 Zrotation Xrotation Yrotation
            JOINT Neck
            {
                OFFSET -0.000000 19.168715 0.000000
                CHANNELS 3 Zrotation Xrotation Yrotation
                JOINT Head
                {
                    OFFSET -0.000000 10.083335 0.000000
                    CHANNELS 3 Zrotation Xrotation Yrotation
                    End Site
                    {
                        OFFSET -0.000000 15.583343 0.000000
                    }
                }
            }
            JOINT LeftCollar
            {
                OFFSET -0.000000 19.168715 0.000000
                CHANNELS 3 Zrotation Xrotation Yrotation
                JOINT LeftShoulder
                {
                    OFFSET 19.500000 -0.000000 0.000000
                    CHANNELS 3 Zrotation Xrotation Yrotation
                    JOINT LeftElbow
                    {
                        OFFSET 19.022890 0.000000 0.000000
                        CHANNELS 3 Zrotation Xrotation Yrotation
                        JOINT LeftWrist
                        {
                            OFFSET 24.768559 0.000000 0.000000
                            CHANNELS 3 Zrotation Xrotation Yrotation
                            End Site
                            {
                                OFFSET 0.000000 -13.750003 0.000000
                            }
                        }
                    }
                }
            }
            JOINT RightCollar
            {
                OFFSET -0.000000 19.168715 0.000000
                CHANNELS 3 Zrotation Xrotation Yrotation
                JOINT RightShoulder
                {
                    OFFSET -19.500000 0.000000 0.000000
                    CHANNELS 3 Zrotation Xrotation Yrotation
                    JOINT RightElbow
                    {
                        OFFSET -19.022890 0.000000 0.000000
                        CHANNELS 3 Zrotation Xrotation Yrotation
                        JOINT RightWrist
                        {
                            OFFSET -24.768559 0.000000 0.000000
                            CHANNELS 3 Zrotation Xrotation Yrotation
                            End Site
                            {
                                OFFSET -0.000000 -13.750003 0.000000
                            }
                        }
                    }
                }
            }
        }
    JOINT LeftHip
    {
        OFFSET 11.000002 0.000000 0.000000
        CHANNELS 3 Zrotation Xrotation Yrotation
        JOINT LeftKnee
        {
            OFFSET -0.000000 -39.837296 0.000000
            CHANNELS 3 Zrotation Xrotation Yrotation
            JOINT LeftAnkle
            {
                OFFSET -0.000000 -38.248398 0.000000
                CHANNELS 3 Zrotation Xrotation Yrotation
                End Site
                {
                    OFFSET -0.000000 -4.583334 15.583343
                }
            }
        }
    }
    JOINT RightHip
    {
        OFFSET -11.000002 0.000000 0.000000
        CHANNELS 3 Zrotation Xrotation Yrotation
        JOINT RightKnee
        {
            OFFSET -0.000000 -39.837296 0.000000
            CHANNELS 3 Zrotation Xrotation Yrotation
            JOINT RightAnkle
            {
                OFFSET -0.000000 -38.248398 0.000000
                CHANNELS 3 Zrotation Xrotation Yrotation
                End Site
                {
                    OFFSET -0.000000 -4.583334 15.583343
                }
            }
        }
    }
}
MOTION
Frames:    13
Frame Time:    0.010000
-68.891464    86.491585    -55.807781    -2.626033    -0.876233    22.980383    0.823914    -2.909179    3.800500    0.494423    -0.511465    8.603335    2.431988    -2.086157    8.586955    -21.493362    -3.957682    20.777088    -0.451152    47.943462    -57.729240    1.681940    -1.535433    -86.044930    170.565506    41.636475    38.503632    17.961622    0.180949    1.270071    35.157135    27.614449    18.778408    21.562355    19.016628    82.782936    -77.237442    -3.550584    -2.899939    3.467174    -1.271731    1.268610    5.284347    19.186590    2.095137    -3.190798    -14.363397    -0.276363    -1.892414    -1.323560    -9.773369    -1.686003    3.372475    -12.112794    5.537991    -2.864128    4.042703    
-68.757309    86.484131    -55.850590    -2.610523    -0.836685    23.156914    0.677892    -3.223409    3.882063    0.950079    1.029480    7.590660    1.881758    -3.193564    7.650850    -21.551409    -3.805178    18.966442    0.106624    49.176105    -58.008171    1.889820    -1.920321    -85.582420    169.944885    41.076706    38.548870    18.273201    0.093909    0.059607    35.243759    27.263023    18.212923    21.520693    19.020489    82.766396    -78.593033    -3.851928    -2.699762    3.315447    -1.450301    1.215490    5.353322    19.391953    1.994405    -3.087431    -14.431873    -0.273505    -2.037783    -1.306436    -9.766204    -1.651473    3.364387    -12.289163    5.599480    -2.855961    4.035563    
-68.626053    86.453331    -55.869476    -2.612456    -0.823999    23.306442    0.613775    -3.210621    3.893747    0.873727    1.079777    7.540236    1.987753    -3.260853    7.604611    -21.610542    -3.714716    18.756784    -0.669081    48.793846    -57.085766    1.844030    -1.687432    -85.720573    170.462936    41.552113    38.542233    18.352188    0.049744    0.041261    35.195244    27.256540    18.219360    21.564690    19.033899    82.707550    -78.563118    -3.740954    -2.868639    3.235646    -1.591272    1.219669    5.380516    19.586020    1.806222    -3.017430    -14.528841    -0.232346    -2.107067    -1.290355    -9.903809    -1.704110    3.373012    -12.321135    5.611478    -2.879117    4.083677    
-68.533691    86.446747    -55.892818    -2.609858    -0.824413    23.424107    0.582213    -3.209949    3.928311    0.879539    1.168131    7.487519    2.004392    -3.344551    7.555179    -21.670986    -3.665897    18.723846    -0.676986    48.734756    -57.096378    1.903852    -1.783557    -85.589081    170.304657    41.393230    38.570297    18.393641    0.021810    0.075206    35.206818    27.250423    18.164791    21.596281    19.046824    82.657501    -78.900864    -3.755996    -2.828638    3.164927    -1.683649    1.223289    5.418694    19.723103    1.696990    -2.937657    -14.594476    -0.237118    -2.174361    -1.260140    -9.952970    -1.718107    3.380011    -12.384272    5.661950    -2.878811    4.092117    
-68.427979    86.439583    -55.920643    -2.604333    -0.828494    23.555534    0.544913    -3.203218    3.967871    0.884975    1.267505    7.419457    2.023488    -3.444521    7.489640    -21.729315    -3.643831    18.676516    -0.659181    48.707321    -57.117435    1.976345    -1.868415    -85.455597    170.201126    41.300224    38.627785    18.443737    0.002105    0.103052    35.219109    27.223059    18.108740    21.632668    19.045570    82.605209    -79.240395    -3.757505    -2.789272    3.081939    -1.777905    1.216198    5.459590    19.869017    1.603059    -2.829496    -14.668524    -0.258712    -2.254612    -1.226182    -10.008343    -1.734905    3.400863    -12.442554    5.735568    -2.875972    4.091251    
-68.309555    86.430786    -55.952679    -2.595961    -0.837010    23.697367    0.503143    -3.186994    4.010823    0.886493    1.365515    7.342844    2.047594    -3.555385    7.416525    -21.788095    -3.642756    18.632639    -0.604034    48.695293    -57.167084    2.054253    -1.946566    -85.317062    170.092499    41.200966    38.705704    18.501297    0.002225    0.135512    35.232227    27.162270    18.053894    21.685312    19.052479    82.538429    -79.560410    -3.736765    -2.740289    2.987969    -1.869071    1.189275    5.498866    20.017256    1.538954    -2.692663    -14.747493    -0.298387    -2.346847    -1.191901    -10.065689    -1.754675    3.442049    -12.496328    5.835270    -2.871792    4.079748    
-68.179314    86.419556    -55.988537    -2.584748    -0.851240    23.845812    0.457174    -3.159030    4.054706    0.884142    1.463165    7.258005    2.075918    -3.683237    7.335934    -21.855198    -3.635788    18.590900    -0.513259    48.672939    -57.234623    2.120900    -1.992744    -85.187462    169.999634    41.102970    38.800190    18.567352    0.002402    0.171732    35.248581    27.086140    17.996246    21.654343    19.044416    82.506676    -79.743073    -3.648407    -2.661366    2.885033    -1.951817    1.135946    5.532207    20.162226    1.513362    -2.531150    -14.827918    -0.354711    -2.449234    -1.160732    -10.118428    -1.778330    3.510181    -12.550977    5.961640    -2.869338    4.059223    
-68.038383    86.405342    -56.027668    -2.570689    -0.872770    23.996954    0.407577    -3.115792    4.096748    0.876823    1.558404    7.168873    2.108525    -3.832574    7.251160    -21.924118    -3.638030    18.555304    -0.388439    48.647770    -57.341484    2.189377    -2.058787    -85.036369    169.875504    40.974297    38.910255    18.641745    0.022435    0.213865    35.267315    26.976130    17.938780    21.691298    19.047192    82.442604    -80.018097    -3.590864    -2.641470    2.775609    -2.020962    1.052130    5.555442    20.299385    1.529721    -2.352818    -14.906607    -0.423665    -2.559326    -1.136295    -10.158615    -1.807121    3.612603    -12.613448    6.112320    -2.874109    4.031396    
-67.888115    86.387993    -56.069641    -2.553646    -0.902733    24.147120    0.354631    -3.055064    4.134225    0.865507    1.653224    7.077061    2.143454    -4.009976    7.164370    -21.988932    -3.659722    18.523560    -0.243087    48.631863    -57.474255    2.278598    -2.141157    -84.863831    169.716232    40.847733    39.034519    18.724686    0.022778    0.260191    35.290020    26.875986    17.878063    21.643883    19.010227    82.426201    -80.099014    -3.431599    -2.531484    2.661912    -2.072759    0.936077    5.565316    20.426174    1.585731    -2.170213    -14.980516    -0.499196    -2.674814    -1.123209    -10.178313    -1.842596    3.757704    -12.690845    6.282116    -2.893098    3.998766    
-67.730042    86.367645    -56.114162    -2.533349    -0.942089    24.293316    0.298931    -2.974494    4.164926    0.851055    1.746503    6.986415    2.178775    -4.218146    7.079499    -22.063728    -3.655209    18.494589    -0.094085    48.584709    -57.590641    2.341744    -2.179607    -84.709206    169.624939    40.799511    39.163696    18.814825    0.057491    0.309448    35.311821    26.737740    17.825130    21.681376    19.016777    82.357162    -80.302322    -3.305161    -2.489582    2.546018    -2.104949    0.789197    5.559889    20.541872    1.673034    -1.998623    -15.046711    -0.574407    -2.793306    -1.127222    -10.169857    -1.887319    3.955823    -12.790904    6.464553    -2.934175    3.965102    
-67.565338    86.344574    -56.161160    -2.509511    -0.992501    24.433552    0.241579    -2.871112    4.186986    0.835485    1.838650    6.900023    2.211474    -4.461020    6.999432    -22.136221    -3.658529    18.464579    0.053706    48.533386    -57.724499    2.429274    -2.264273    -84.517776    169.475647    40.749359    39.295368    18.910583    0.077831    0.358381    35.328743    26.624088    17.787979    21.637455    18.964960    82.341743    -80.316185    -3.063532    -2.342750    2.430003    -2.116652    0.617061    5.539207    20.648544    1.776020    -1.850489    -15.103519    -0.641230    -2.912018    -1.155460    -10.125235    -1.945799    4.221506    -12.925461    6.655103    -3.004550    3.938588    
-67.394409    86.319061    -56.210934    -2.481574    -1.056468    24.566799    0.183693    -2.740303    4.198798    0.821173    1.929563    6.821496    2.238878    -4.743919    6.927751    -22.211456    -3.654080    18.428282    0.179438    48.469021    -57.830334    2.504592    -2.329854    -84.328194    169.379318    40.771130    39.426880    19.010170    0.058712    0.404881    35.348522    26.559666    17.748518    21.554636    18.874590    82.355774    -80.335991    -2.788873    -2.231488    2.315483    -2.108475    0.428305    5.504992    20.751537    1.872860    -1.730482    -15.150952    -0.689721    -3.028613    -1.217528    -10.036645    -2.024143    4.576447    -13.109653    6.853663    -3.110645    3.930806    
-67.217255    86.291359    -56.264210    -2.448683    -1.136024    24.692644    0.125701    -2.577488    4.199477    0.812714    2.019831    6.751412    2.257061    -5.071990    6.865364    -22.277304    -3.675943    18.374660    0.267128    48.421993    -57.915737    2.604742    -2.418213    -84.108795    169.251923    40.799950    39.557945    19.111296    0.059462    0.444620    35.367336    26.484911    17.718678    21.497570    18.836514    82.337608    -80.410156    -2.484046    -2.153337    2.203260    -2.083048    0.232844    5.459520    20.858212    1.943162    -1.635309    -15.190476    -0.711956    -3.141970    -1.325670    -9.897599    -2.128406    5.047320    -13.361323    7.064875    -3.256930    3.957355    
